<?xml version="1.0" encoding="UTF-8"?>
<!DOCTYPE svg PUBLIC "-//W3C//DTD SVG 1.1//EN" "http://www.w3.org/Graphics/SVG/1.1/DTD/svg11.dtd">
<!-- Creator: CorelDRAW 2021 (64 Bit) -->
<svg xmlns="http://www.w3.org/2000/svg" xml:space="preserve" width="2.7092mm" height="2.7092mm" version="1.1" style="shape-rendering:geometricPrecision; text-rendering:geometricPrecision; image-rendering:optimizeQuality; fill-rule:evenodd; clip-rule:evenodd"
viewBox="0 0 270.92 270.92"
 xmlns:xlink="http://www.w3.org/1999/xlink"
 xmlns:xodm="http://www.corel.com/coreldraw/odm/2003">
 <defs>
  <style type="text/css">
   <![CDATA[
    .fil4 {fill:#3A3A3A}
    .fil3 {fill:#3C3612}
    .fil2 {fill:#D4BF77}
    .fil17 {fill:#F4EA76}
    .fil10 {fill:#F4EB7B}
    .fil6 {fill:#F4ECC6}
    .fil5 {fill:#F5E8B5}
    .fil15 {fill:#F9EB93}
    .fil8 {fill:#F9F27D}
    .fil1 {fill:#FAE69D}
    .fil9 {fill:#FCF3A3}
    .fil11 {fill:#FDF5A6}
    .fil18 {fill:#FDF6A9}
    .fil13 {fill:#FEF8BA}
    .fil16 {fill:#FEFADA}
    .fil0 {fill:#FFEA4C}
    .fil14 {fill:#FFFDC3}
    .fil7 {fill:#FFFDCB}
    .fil12 {fill:#FFFDD3}
   ]]>
  </style>
 </defs>
 <g id="Camada_x0020_1">
  <metadata id="CorelCorpID_0Corel-Layer"/>
  <g id="_2030518242960">
   <g>
    <g>
     <path class="fil0" d="M180.15 7.74c-0.74,5.42 -2.39,5.86 -7.68,8.8l-1.68 1.1 0.49 2.19 -1.57 4.96 -4.62 0.96 -2.01 -1.23c-1.08,5.82 -7.71,11.79 -13.25,13.79l0.33 3.63 -4 0.99 -8.99 8.5c-2.72,6.81 -5.04,7.7 -11.29,11.65l-5.73 4.7 -1.06 4.22 -3.84 0.52c-1.81,3.9 -1.66,5.27 -6.57,5.62 -0.81,6.31 -1.08,5.49 -7.68,7.8l-13.26 13.09c-1.65,4.6 -0.5,5.65 -5.92,6.38 -0.37,6.41 -0.04,3.61 -5.44,7.79 -4.65,3.59 -2.82,3.61 -8.36,6.68l-1.16 2.26c-2.76,5.54 -4.82,9.5 -11.2,10.34l0.54 -0.46c-2.77,5.44 -1.8,5.36 -8.04,6.82l-5.13 6.71c-3.24,6.81 -5.59,6.07 -9.71,12.61l-5.07 0.96 -0.23 -0.84c-2.03,5.54 -0.67,4.72 -6.92,6.35l-9.8 10.36 -1.11 4.14 -2.99 -0.15c-1.8,5.53 -1.8,5.12 -7.2,7.51l4.9 5.15 68.51 0.27 2.99 -0.71 114.65 -113.03 -0.71 -1.61 -0.22 -72.3c-7.4,1.04 -3.54,1.62 -9.97,3.48z"/>
     <path class="fil1" d="M229.58 119.68l0.2 110.17 -112.61 -0.72 -80.31 -2.1 73.15 3.59 -2.75 8.55c-2.64,5.63 -13.23,17.25 -19.38,19.46l-3.99 7.03c26.86,1.42 165.18,3.56 182.31,-1.09l0.36 -175.01c-6.37,1.22 -16.81,15.81 -23.81,17.03l-11.71 11.15 -5.02 -75.78 3.56 77.72z"/>
     <polygon class="fil2" points="213.72,132.48 154.44,192.03 117.17,229.13 229.78,229.85 229.58,119.68 "/>
     <polygon class="fil3" points="76.4,191.2 154.44,192.03 213.72,132.48 192.98,150.01 191.04,149.53 191.05,78.17 "/>
     <polygon class="fil4" points="76.4,191.2 73.41,191.91 36.86,227.03 117.17,229.13 154.44,192.03 "/>
     <polygon class="fil4" points="190.34,76.56 191.05,78.17 191.04,149.53 192.98,150.01 213.72,132.48 229.58,119.68 226.02,41.96 "/>
     <path class="fil5" d="M260.35 87.1c-3.05,4.95 -1.6,4.05 -7.43,5.58l-10.17 13.91c7,-1.22 17.44,-15.81 23.81,-17.03l-0.36 175.01c-17.13,4.65 -155.45,2.51 -182.31,1.09l3.99 -7.03c-5.88,0.92 -7.76,5.62 -9.01,10.57 17.48,2.39 181.45,2.54 189.09,-1.11 4.78,-8.15 2.77,-166.79 0.95,-187.39 -7.64,1.21 -4.09,2.11 -8.56,6.4z"/>
     <path class="fil6" d="M87.88 258.63c6.15,-2.21 16.74,-13.83 19.38,-19.46 -7.42,1.52 -5.73,3.57 -11.51,8.51 -5,4.27 -6.58,5.29 -7.87,10.95z"/>
     <path class="fil7" d="M149.83 38.31c5.54,-2 12.17,-7.97 13.25,-13.79 -9.66,3.04 -3.28,5.09 -12.59,9.34l-0.66 4.45z"/>
     <path class="fil8" d="M28.25 159.12l5.07 -0.96c4.12,-6.54 6.47,-5.8 9.71,-12.61 -6.19,2.61 -11.48,7.75 -14.78,13.57z"/>
     <path class="fil9" d="M68.02 119.88c5.54,-3.07 3.71,-3.09 8.36,-6.68 5.4,-4.18 5.07,-1.38 5.44,-7.79 -5.77,2.82 -11.29,8.72 -13.8,14.47z"/>
     <path class="fil10" d="M55.66 132.48c6.38,-0.84 8.44,-4.8 11.2,-10.34 -6,2.69 -8.17,4.4 -11.2,10.34z"/>
     <path class="fil11" d="M125.88 63.08c6.25,-3.95 8.57,-4.84 11.29,-11.65 -5.79,2.3 -8.56,6.09 -11.29,11.65z"/>
     <path class="fil12" d="M180.15 7.74c6.43,-1.86 2.57,-2.44 9.97,-3.48l-1.8 -4.26c-5.39,2.13 -6.29,3.1 -8.17,7.74z"/>
     <polygon class="fil7" points="163.08,24.52 165.09,25.75 171.28,19.83 170.79,17.64 164.95,19.75 "/>
     <path class="fil13" d="M-0.01 186.49c5.41,-2.39 5.41,-1.98 7.21,-7.51 -5.44,1.79 -5.79,1.61 -7.21,7.51z"/>
     <path class="fil14" d="M172.47 16.54c5.29,-2.94 6.94,-3.38 7.68,-8.8 -5.61,3.63 -5.56,3.04 -7.68,8.8z"/>
     <path class="fil7" d="M108.68 78.14c4.91,-0.35 4.76,-1.72 6.57,-5.62 -5.81,0.38 -5.29,0.36 -6.57,5.62z"/>
     <path class="fil15" d="M48.16 138.84c6.24,-1.46 5.27,-1.38 8.04,-6.82 -5.76,1.97 -5,1.74 -8.04,6.82z"/>
     <path class="fil16" d="M252.92 92.68c5.83,-1.53 4.38,-0.63 7.43,-5.58l-5.67 0.8 -1.76 4.78z"/>
     <path class="fil13" d="M21.1 164.63c6.25,-1.63 4.89,-0.81 6.92,-6.35 -5.45,1.98 -4.22,1.53 -6.92,6.35z"/>
     <path class="fil13" d="M81.82 105.41c5.42,-0.73 4.27,-1.78 5.92,-6.38 -5.35,2.41 -4.61,1.38 -5.92,6.38z"/>
     <path class="fil13" d="M101 85.94c6.6,-2.31 6.87,-1.49 7.68,-7.8l-7.68 7.8z"/>
     <polygon class="fil17" points="165.09,25.75 169.71,24.79 171.28,19.83 "/>
     <polygon class="fil18" points="115.25,72.52 119.09,72 120.15,67.78 "/>
     <polygon class="fil18" points="146.16,42.93 150.16,41.94 149.83,38.31 "/>
     <polygon class="fil11" points="7.2,178.98 10.19,179.13 11.3,174.99 "/>
    </g>
   </g>
  </g>
 </g>
</svg>
